<svg width="43" height="45" viewBox="0 0 43 45" fill="none" xmlns="http://www.w3.org/2000/svg">
<path d="M43.0001 33.75C43.0001 35.0761 42.4967 36.3479 41.6007 37.2855C40.7047 38.2232 39.4894 38.75 38.2223 38.75H28.6667V6.25H38.2223C39.4894 6.25 40.7047 6.77678 41.6007 7.71447C42.4967 8.65215 43.0001 9.92392 43.0001 11.25V33.75Z" fill="#ED2939"/>
<path d="M4.77778 6.25C3.51063 6.25 2.29539 6.77678 1.39938 7.71447C0.503372 8.65215 0 9.92392 0 11.25L0 33.75C0 35.0761 0.503372 36.3479 1.39938 37.2855C2.29539 38.2232 3.51063 38.75 4.77778 38.75H14.3333V6.25H4.77778Z" fill="#002495"/>
<path d="M14.3333 6.25H28.6666V38.75H14.3333V6.25Z" fill="#EEEEEE"/>
</svg>
