<svg width="45" height="45" viewBox="0 0 45 45" fill="none" xmlns="http://www.w3.org/2000/svg">
<g clip-path="url(#clip0_29_53)">
<path d="M5.00005 38.75H40.0001C40.8463 38.7508 41.6788 38.5357 42.4188 38.125H2.5813C3.32127 38.5357 4.15376 38.7508 5.00005 38.75Z" fill="#0D5EB0"/>
<path d="M10.625 24.375H0V27.5H45V24.375H17.5H10.625ZM0 33.75C0 33.9625 0.0175 34.17 0.04375 34.375H44.9575C44.9825 34.17 45 33.9625 45 33.75V31.25H0V33.75ZM17.5 17.5H45V20.625H17.5V17.5ZM17.5 10.625V13.75H45V11.25C45 11.0375 44.9825 10.83 44.9562 10.625H17.5Z" fill="#EEEEEE"/>
<path d="M17.5 13.75H45V17.5H17.5V13.75ZM0 27.5H45V31.25H0V27.5ZM2.58125 38.125H42.4188C43.107 37.7436 43.6956 37.2053 44.1368 36.5537C44.5779 35.9021 44.8591 35.1557 44.9575 34.375H0.04375C0.141652 35.1557 0.422502 35.9022 0.863442 36.5539C1.30438 37.2055 1.89295 37.7438 2.58125 38.125ZM0 17.5H6.875V24.375H0V17.5ZM17.5 20.625V17.5H10.625V24.375H45V20.625H17.5ZM42.4188 6.875C41.6788 6.46434 40.8463 6.24922 40 6.25H5C3.78288 6.25134 2.60799 6.69636 1.69541 7.50171C0.782835 8.30706 0.195172 9.41749 0.0425 10.625C0.0175 10.83 0 11.0375 0 11.25V13.75H6.875V6.875H10.625V13.75H17.5V10.625H44.9562C44.8583 9.84432 44.5775 9.09777 44.1366 8.44614C43.6956 7.7945 43.1071 7.25619 42.4188 6.875Z" fill="#0D5EB0"/>
<path d="M10.625 13.75V6.25H6.875V13.75H0V17.5H6.875V24.375H10.625V17.5H17.5V13.75H10.625Z" fill="#EEEEEE"/>
</g>
<defs>
<clipPath id="clip0_29_53">
<rect width="45" height="45" fill="white"/>
</clipPath>
</defs>
</svg>
