<svg width="70" height="70" viewBox="0 0 70 70" fill="none" xmlns="http://www.w3.org/2000/svg">
<g clip-path="url(#clip0_65_48)">
<path fill-rule="evenodd" clip-rule="evenodd" d="M33.1683 0.553437C34.2767 -0.184479 35.7204 -0.184479 36.8317 0.553437L68.5183 21.5826C69.4429 22.1951 70 23.2305 70 24.3418V45.6568C70 46.7651 69.4458 47.8034 68.5183 48.4189L36.8317 69.448C35.7233 70.183 34.2796 70.183 33.1683 69.448L1.48167 48.4159C1.02633 48.1139 0.65277 47.7039 0.394257 47.2225C0.135744 46.7411 0.000304016 46.2032 0 45.6568L0 24.3418C0 23.2334 0.554167 22.1951 1.48167 21.5797L33.1683 0.553437ZM6.62667 30.5164V39.4355L13.3 34.9439L6.62667 30.5164ZM19.2763 38.9105L9.275 45.6393L31.6867 60.5143V47.1472L19.2792 38.9105H19.2763ZM38.3133 47.1472V60.5114L60.725 45.6364L50.7208 38.9105L38.3133 47.1472ZM56.6971 34.9468L63.3763 39.4384V30.5134L56.6971 34.9468ZM60.6958 24.3418L50.75 30.9422L38.3133 22.5772V9.48719L60.6958 24.3418ZM31.6867 9.48719V22.5743L19.2529 30.9393L9.30417 24.3418L31.6867 9.48719ZM35 28.3347L25.2292 34.9089L35 41.3926L44.7708 34.9089L35 28.3347Z" fill="black"/>
</g>
<defs>
<clipPath id="clip0_65_48">
<rect width="70" height="70" fill="white"/>
</clipPath>
</defs>
</svg>
