<svg width="65" height="65" viewBox="0 0 65 65" fill="none" xmlns="http://www.w3.org/2000/svg">
<path d="M0 0H65V65H0V0Z" fill="#F7DF1E"/>
<path d="M17.0908 54.3189L22.0649 51.3086C23.0246 53.01 23.8976 54.4496 25.9915 54.4496C27.9986 54.4496 29.2644 53.6646 29.2644 50.6106V29.8416H35.3726V50.6969C35.3726 57.0235 31.664 59.9033 26.2533 59.9033C21.3669 59.9033 18.5305 57.3726 17.0906 54.3184L17.0908 54.3189ZM38.6904 53.6643L43.6639 50.7848C44.9733 52.9229 46.675 54.4936 49.6853 54.4936C52.2165 54.4936 53.8303 53.2281 53.8303 51.4827C53.8303 49.3885 52.1723 48.6466 49.3798 47.4253L47.8531 46.7703C43.4461 44.8946 40.5228 42.5384 40.5228 37.5644C40.5228 32.9829 44.0133 29.4922 49.4674 29.4922C53.3507 29.4922 56.1431 30.845 58.15 34.3791L53.3938 37.4336C52.3465 35.5575 51.2125 34.8158 49.4672 34.8158C47.6782 34.8158 46.5437 35.9503 46.5437 37.4336C46.5437 39.2661 47.6782 40.0082 50.2959 41.1427L51.8229 41.797C57.0153 44.0225 59.9385 46.2911 59.9385 51.3957C59.9385 56.8937 55.6191 59.9041 49.8161 59.9041C44.144 59.9041 40.4789 57.1989 38.6901 53.6646" fill="black"/>
</svg>
