<svg width="70" height="70" viewBox="0 0 70 70" fill="none" xmlns="http://www.w3.org/2000/svg">
<g clip-path="url(#clip0_65_19)">
<path d="M14.8167 0H17.9725V3.11792H20.86V0H24.0158V9.43833H20.86V6.27958H17.9725V9.43833H14.8196V0H14.8167ZM28.1633 3.12958H25.3867V0H34.0987V3.12958H31.3192V9.43833H28.1633V3.12958ZM35.4812 0H38.7712L40.7954 3.31625L42.8167 0H46.1066V9.43833H42.9654V4.76L40.7954 8.11708H40.74L38.5671 4.76292V9.43833H35.4812V0ZM47.6758 0H50.8346V6.32042H55.2679V9.44125H47.6758V0Z" fill="#2C7BD4"/>
<path fill-rule="evenodd" clip-rule="evenodd" d="M14.7175 64.3766L8.75 13.7578H61.25L55.2796 64.3707L34.9708 69.9999L14.7175 64.3766ZM26.7837 36.6682L26.2179 30.3099H49.9742L50.5283 24.1032H19.4367L21.1108 42.8778H42.6271L41.9067 50.9278L34.9825 52.8003H34.9767L28.0642 50.9336L27.6208 45.9841H21.385L22.2542 55.7316L34.9708 59.2607L47.7079 55.7316L49.2596 38.3366L49.4113 36.6711H26.7837V36.6682Z" fill="#2C7BD4"/>
</g>
<defs>
<clipPath id="clip0_65_19">
<rect width="70" height="70" fill="white"/>
</clipPath>
</defs>
</svg>
