<svg width="70" height="70" viewBox="0 0 70 70" fill="none" xmlns="http://www.w3.org/2000/svg">
<path d="M69.9006 34.9133C69.9006 54.1945 54.2696 69.8258 34.9873 69.8258C15.7045 69.8258 0.0737305 54.1945 0.0737305 34.9133C0.0737305 15.6311 15.7051 0 34.9873 0C54.2699 0 69.9006 15.6311 69.9006 34.9133Z" fill="#DD4814"/>
<path d="M11.2473 30.2515C8.67181 30.2515 6.58521 32.3381 6.58521 34.9136C6.58521 37.4878 8.67181 39.5746 11.2473 39.5746C13.8217 39.5746 15.9083 37.4878 15.9083 34.9136C15.9083 32.3381 13.8217 30.2515 11.2473 30.2515ZM44.5288 51.4369C42.2994 52.7248 41.5346 55.574 42.8225 57.8022C44.109 60.0319 46.9583 60.7961 49.1879 59.5085C51.4172 58.222 52.1817 55.3728 50.8941 53.1429C49.6076 50.9149 46.7567 50.1506 44.5288 51.4369ZM21.3724 34.9136C21.3724 30.3073 23.6606 26.2374 27.1614 23.7732L23.7535 18.0655C19.6755 20.7917 16.6409 24.9572 15.3798 29.8362C16.8514 31.0365 17.7931 32.8645 17.7931 34.9133C17.7931 36.9611 16.8514 38.789 15.3798 39.9897C16.6392 44.8697 19.6738 49.0358 23.7535 51.762L27.1614 46.0526C23.6606 43.5898 21.3724 39.5202 21.3724 34.9136ZM34.9874 21.2972C42.1004 21.2972 47.9361 26.7507 48.5486 33.7058L55.1904 33.6079C54.8639 28.4733 52.6206 23.8637 49.1742 20.4742C47.4018 21.1438 45.3543 21.0413 43.5851 20.0214C41.8124 18.9985 40.7009 17.2728 40.3971 15.3997C38.6351 14.9121 36.8154 14.6647 34.9872 14.6642C31.8743 14.661 28.8028 15.3782 26.0132 16.7595L29.2521 22.5638C31.0484 21.7277 33.0061 21.2954 34.9874 21.2972ZM34.9874 48.5289C33.0062 48.5307 31.0486 48.0983 29.2524 47.2623L26.0135 53.066C28.8028 54.4489 31.8745 55.1669 34.9877 55.1636C36.816 55.1631 38.6357 54.9151 40.3974 54.4261C40.7012 52.5531 41.813 50.829 43.5851 49.8045C45.3559 48.7826 47.402 48.682 49.1742 49.3517C52.6209 45.9621 54.8639 41.3525 55.1909 36.2179L48.5472 36.12C47.9361 43.0771 42.1006 48.5286 34.9874 48.5286V48.5289ZM44.5271 18.3876C46.7567 19.6749 49.6062 18.9126 50.8925 16.683C52.1804 14.4534 51.4175 11.6039 49.1879 10.316C46.9583 9.02975 44.109 9.79373 42.8209 12.0233C41.5349 14.2519 42.2992 17.1011 44.5271 18.3876Z" fill="white"/>
</svg>
