<svg width="47" height="70" viewBox="0 0 47 70" fill="none" xmlns="http://www.w3.org/2000/svg">
<g clip-path="url(#clip0_65_42)">
<path d="M11.6684 69.9993C18.1084 69.9993 23.335 64.7727 23.335 58.3327V46.666H11.6684C5.22838 46.666 0.00170898 51.8927 0.00170898 58.3327C0.00170898 64.7727 5.22838 69.9993 11.6684 69.9993Z" fill="#0ACF83"/>
<path d="M0.00170898 35.0007C0.00170898 28.5607 5.22838 23.334 11.6684 23.334H23.335V46.6673H11.6684C5.22838 46.6673 0.00170898 41.4407 0.00170898 35.0007Z" fill="#A259FF"/>
<path d="M0.00170898 11.6667C0.00170898 5.22667 5.22838 0 11.6684 0H23.335V23.3333H11.6684C5.22838 23.3333 0.00170898 18.1067 0.00170898 11.6667Z" fill="#F24E1E"/>
<path d="M23.335 0H35.0016C41.4416 0 46.6683 5.22667 46.6683 11.6667C46.6683 18.1067 41.4416 23.3333 35.0016 23.3333H23.335V0Z" fill="#FF7262"/>
<path d="M46.6683 35.0007C46.6683 41.4407 41.4416 46.6673 35.0016 46.6673C28.5616 46.6673 23.335 41.4407 23.335 35.0007C23.335 28.5607 28.5616 23.334 35.0016 23.334C41.4416 23.334 46.6683 28.5607 46.6683 35.0007Z" fill="#1ABCFE"/>
</g>
<defs>
<clipPath id="clip0_65_42">
<rect width="46.67" height="70" fill="white"/>
</clipPath>
</defs>
</svg>
