<svg width="90" height="90" viewBox="0 0 90 90" fill="none" xmlns="http://www.w3.org/2000/svg">
<path d="M75 22.5C75 14.37 61.2637 7.5 45 7.5C28.7362 7.5 15 14.37 15 22.5V30C15 38.13 28.7362 45 45 45C61.2637 45 75 38.13 75 30V22.5ZM45 71.25C28.7362 71.25 15 64.38 15 56.25V67.5C15 75.63 28.7362 82.5 45 82.5C61.2637 82.5 75 75.63 75 67.5V56.25C75 64.38 61.2637 71.25 45 71.25Z" fill="#2C7BD4"/>
<path d="M75 37.5C75 45.63 61.2637 52.5 45 52.5C28.7362 52.5 15 45.63 15 37.5V48.75C15 56.88 28.7362 63.75 45 63.75C61.2637 63.75 75 56.88 75 48.75V37.5Z" fill="#2C7BD4"/>
</svg>
