<svg width="88" height="70" viewBox="0 0 88 70" fill="none" xmlns="http://www.w3.org/2000/svg">
<path d="M75.7194 40.292C72.6582 40.3088 69.9974 41.0908 67.7698 42.2469C66.952 40.5297 66.1347 38.9999 65.9906 37.8778C65.8301 36.5689 65.638 35.7697 65.8301 34.2057C66.0226 32.6416 66.8881 30.4144 66.8719 30.2445C66.8561 30.0746 66.6795 29.2754 64.9165 29.2586C63.1535 29.2415 61.6308 29.6156 61.4545 30.1085C61.2782 30.6014 60.9416 31.7236 60.7172 32.8793C60.4127 34.5797 57.1913 40.6486 55.3482 43.8278C54.7549 42.5871 54.2421 41.4988 54.1297 40.6318C53.9695 39.323 53.777 38.5238 53.9695 36.9597C54.162 35.3957 55.0275 33.1688 55.0114 32.9985C54.9952 32.8286 54.8189 32.0295 53.0559 32.0127C51.2926 31.9956 49.7699 32.3696 49.5939 32.8625C49.4176 33.3558 49.2251 34.5116 48.8566 35.6337C48.4878 36.7559 44.2084 46.8884 43.0865 49.5061C42.6331 50.5657 42.1575 51.6144 41.66 52.6514C41.66 52.6514 41.6439 52.7024 41.5957 52.7874C41.4395 53.1126 41.2793 53.4356 41.1152 53.7565V53.7732C40.8746 54.2326 40.6182 54.6573 40.49 54.6573C40.3937 54.6573 40.2174 53.4334 40.5219 51.7673C41.163 48.2483 42.6857 42.7741 42.6699 42.5871C42.6699 42.485 42.9583 41.5331 41.6762 41.0398C40.4257 40.5469 39.9771 41.3628 39.8647 41.3628C39.7527 41.3628 39.6723 41.6519 39.6723 41.6519C39.6723 41.6519 41.0671 35.4978 37.0118 35.4978C34.4796 35.4978 30.9853 38.4388 29.2543 41.0908C27.2865 42.2267 25.3204 43.3657 23.356 44.5081C22.4107 45.0692 21.4328 45.6303 20.5192 46.1571C20.4549 46.0893 20.391 46.004 20.3267 45.9361C15.4221 40.377 6.35048 36.4497 6.73511 28.9867C6.87948 26.2665 7.76079 19.1261 24.1575 10.456C37.6529 3.40056 48.3919 5.35546 50.2511 9.69072C52.9115 15.8792 44.4971 27.3716 30.5525 29.0373C25.2313 29.6666 22.4423 27.4904 21.7374 26.6745C21.0001 25.8243 20.8877 25.7732 20.6151 25.9435C20.1665 26.1987 20.4549 26.9636 20.6151 27.4055C21.032 28.5612 22.7469 30.6014 25.6479 31.6047C28.2125 32.4885 34.4473 32.9818 41.9965 29.8875C50.4432 26.4193 57.0469 16.78 55.1076 8.70489C53.168 0.510511 40.3456 -2.19251 28.2125 2.38046C21.0001 5.10098 13.1782 9.38483 7.55249 14.9611C0.868751 21.5911 -0.189236 27.3544 0.243514 29.7687C1.79853 38.3368 12.938 43.9131 17.3937 48.0442C17.1692 48.1801 16.9606 48.2994 16.7846 48.4015C14.5566 49.5743 6.06175 54.2833 3.94612 59.2646C1.54211 64.9087 4.3311 68.9552 6.17415 69.4988C11.8961 71.1821 17.7783 68.156 20.9358 63.1576C24.0932 58.1595 23.7086 51.6652 22.2502 48.6902C22.234 48.6563 22.2182 48.622 22.1859 48.5881C22.763 48.2312 23.356 47.8571 23.9331 47.5002C24.9938 46.8351 26.0679 46.1945 27.1548 45.5788C26.6097 47.16 26.2089 49.0471 26.0167 51.7673C25.7761 54.9636 27.0101 59.1114 28.629 60.7433C29.3505 61.4579 30.1999 61.4747 30.745 61.4747C32.6362 61.4747 33.4859 59.8085 34.4315 57.8365C35.5854 55.4226 36.6272 52.6175 36.6272 52.6175C36.6272 52.6175 35.3289 60.1997 38.8552 60.1997C40.1373 60.1997 41.4356 58.4315 42.0127 57.5306V57.5474C42.0127 57.5474 42.0447 57.4963 42.1089 57.3775C42.2371 57.1566 42.3172 57.0202 42.3172 57.0202V56.9867C42.8301 56.0344 43.9843 53.8753 45.6991 50.2882C47.911 45.6642 50.0428 39.8841 50.0428 39.8841C50.0428 39.8841 50.2353 41.295 50.8921 43.6411C51.2771 45.0181 52.078 46.5311 52.7194 47.9931C52.2066 48.7584 51.8859 49.1831 51.8859 49.1831L51.902 49.2002C51.4851 49.7781 51.0365 50.407 50.5395 51.0195C48.7923 53.2293 46.709 55.7627 46.4203 56.4934C46.0834 57.3604 46.1639 57.9896 46.8052 58.4997C47.27 58.8737 48.1032 58.9244 48.9528 58.8737C50.5237 58.7545 51.6294 58.3466 52.1742 58.0917C53.0239 57.7687 54.0176 57.2754 54.9471 56.5444C56.6623 55.2013 57.7038 53.2803 57.6079 50.7475C57.5597 49.3534 57.127 47.9592 56.598 46.65C56.7585 46.4123 56.9025 46.1742 57.063 45.9361C59.7716 41.7369 61.8714 37.1296 61.8714 37.1296C61.8714 37.1296 62.0639 38.5406 62.7208 40.887C63.0415 42.077 63.6987 43.3691 64.2754 44.6269C61.7271 46.8203 60.1562 49.3701 59.5953 51.0363C58.5858 54.1305 59.3708 55.5243 60.8616 55.8473C61.5346 56.0005 62.4963 55.6603 63.2016 55.3373C64.0991 55.0314 65.1571 54.5046 66.167 53.7222C67.8822 52.3794 69.5327 50.5091 69.4365 47.9763C69.3884 46.8203 69.1 45.6809 68.6992 44.5759C70.8629 43.6243 73.6519 43.0971 77.2098 43.539C84.8395 44.4909 86.346 49.54 86.0573 51.6656C85.7689 53.7904 84.1661 54.9464 83.6375 55.3034C83.1082 55.6607 82.9322 55.7795 82.9803 56.0344C83.0442 56.4084 83.3006 56.3917 83.7495 56.3235C84.3748 56.2046 87.7567 54.6063 87.9007 50.6961C88.1413 45.6981 83.6533 40.241 75.7194 40.292ZM16.8647 61.3387C14.3321 64.2626 10.8062 65.3677 9.28349 64.4329C7.64874 63.4296 8.28978 59.1115 11.3991 56.0176C13.2903 54.1305 15.7266 52.3791 17.3456 51.3083C17.714 51.0702 18.2592 50.7304 18.9164 50.3053C19.0285 50.2371 19.0927 50.2032 19.0927 50.2032L19.4774 49.948C20.6151 54.3682 19.5255 58.2616 16.8647 61.3387ZM35.297 48.0442C34.4153 50.3224 32.5723 56.1536 31.4503 55.8306C30.4886 55.5586 29.8953 51.1384 31.2579 46.7692C31.947 44.5759 33.4055 41.9578 34.2551 40.9381C35.6335 39.3058 37.1562 38.7615 37.5247 39.425C37.9897 40.292 35.8418 46.6161 35.297 48.0442ZM50.5075 55.7624C50.1387 55.9666 49.7864 56.1025 49.6259 56.0005C49.5138 55.9323 49.7864 55.6603 49.7864 55.6603C49.7864 55.6603 51.6937 53.4845 52.4468 52.4983C52.8799 51.9204 53.3924 51.2405 53.9376 50.4752V50.6961C53.9376 53.2974 51.5652 55.0485 50.5072 55.7624H50.5075ZM62.2399 52.9234C61.9673 52.7192 62.0154 52.0393 62.9291 49.9141C63.2817 49.081 64.1149 47.6872 65.5417 46.3441C65.7019 46.8881 65.8143 47.4153 65.7981 47.9082C65.782 51.1894 63.5705 52.4133 62.2399 52.9234Z" fill="#CD6799"/>
</svg>
