<svg width="99" height="50" viewBox="0 0 99 50" fill="none" xmlns="http://www.w3.org/2000/svg">
<g clip-path="url(#clip0_57_389)">
<path d="M49.4996 49.8518C76.8372 49.8518 98.9987 38.6921 98.9987 24.9259C98.9987 11.1597 76.8372 0 49.4996 0C22.162 0 0.000488281 11.1597 0.000488281 24.9259C0.000488281 38.6921 22.162 49.8518 49.4996 49.8518Z" fill="url(#paint0_radial_57_389)"/>
<path d="M49.5 47.9997C75.7697 47.9997 97.0655 37.6691 97.0655 24.9256C97.0655 12.1822 75.7697 1.85156 49.5 1.85156C23.2304 1.85156 1.93457 12.1822 1.93457 24.9256C1.93457 37.6691 23.2304 47.9997 49.5 47.9997Z" fill="#6181B6"/>
<path d="M59.1292 32.4065L61.4882 20.7768C62.0296 18.1472 61.5655 16.1842 60.1734 14.962C58.8199 13.7768 56.4996 13.1842 53.0965 13.1842H48.9974L50.1575 7.40647C50.1962 7.18424 50.1575 6.96202 50.0028 6.77684C49.8482 6.59165 49.6548 6.51758 49.4228 6.51758H43.7768C43.3901 6.51758 43.0807 6.77684 43.0034 7.11017L40.4897 19.4435C40.2577 18.0361 39.7163 16.8509 38.7882 15.888C37.1253 14.0731 34.5344 13.1472 31.0153 13.1472H20.1487C19.762 13.1472 19.4526 13.4065 19.3753 13.7398L14.3094 38.7768C14.2707 38.9991 14.3094 39.2213 14.464 39.4065C14.6187 39.5917 14.8121 39.6657 15.0441 39.6657H20.7288C21.1155 39.6657 21.4249 39.4065 21.5022 39.0731L22.7397 33.0361H26.9548C29.1591 33.0361 31.054 32.8139 32.4848 32.3694C33.993 31.888 35.3465 31.1102 36.5453 30.0361C37.5121 29.1842 38.3241 28.2213 38.9429 27.1842L37.9374 32.1843C37.8988 32.4065 37.9374 32.6287 38.0921 32.8139C38.2468 32.9991 38.4402 33.0731 38.6722 33.0731H44.3182C44.7049 33.0731 45.0143 32.8139 45.0916 32.4805L47.8759 18.7768H51.743C53.4059 18.7768 53.8699 19.0731 54.0246 19.2213C54.1406 19.3324 54.3727 19.7768 54.102 21.1472L51.8591 32.2213C51.8204 32.4435 51.8591 32.6657 52.0137 32.8509C52.1684 33.0361 52.3618 33.1102 52.5938 33.1102H58.3945C58.7425 32.9991 59.0519 32.7398 59.1292 32.4065ZM32.9875 22.7768C32.6395 24.5176 31.9821 25.7768 31.0153 26.4805C30.0485 27.1842 28.463 27.5546 26.3748 27.5546H23.8611L25.6787 18.5917H28.9271C31.3247 18.5917 32.2914 19.0731 32.6782 19.4805C33.1809 20.0731 33.2969 21.2213 32.9875 22.7768ZM83.26 15.888C81.5972 14.0731 79.0062 13.1472 75.4871 13.1472H64.5432C64.1565 13.1472 63.8471 13.4065 63.7698 13.7398L58.7038 38.7398C58.6652 38.962 58.7038 39.1843 58.8585 39.3694C59.0132 39.5546 59.2066 39.6287 59.4386 39.6287H65.1233C65.51 39.6287 65.8193 39.3694 65.8967 39.0361L67.1342 32.9991H71.3493C73.5536 32.9991 75.4485 32.7768 76.8793 32.3324C78.3875 31.8509 79.741 31.0731 80.9398 29.9991C81.9452 29.1102 82.796 28.1102 83.4147 27.0361C84.0335 25.962 84.4975 24.7768 84.7682 23.4805C85.4256 20.2583 84.9229 17.7398 83.26 15.888ZM77.3433 22.7768C76.9953 24.5176 76.3379 25.7768 75.3711 26.4805C74.4043 27.1842 72.8188 27.5546 70.7306 27.5546H68.2169L70.0345 18.5917H73.2829C75.6805 18.5917 76.6473 19.0731 77.034 19.4805C77.5754 20.0731 77.6914 21.2213 77.3433 22.7768Z" fill="white"/>
<path d="M28.927 17.8524C31.0926 17.8524 32.5234 18.2227 33.2582 19.0005C33.9929 19.7783 34.1476 21.0746 33.7609 22.9264C33.3742 24.8524 32.6008 26.2598 31.4793 27.0746C30.3578 27.8894 28.6563 28.2968 26.3747 28.2968H22.933L25.0599 17.8524H28.927ZM15.0828 38.8894H20.7674L22.1209 32.2598H26.9935C29.159 32.2598 30.8992 32.0375 32.2914 31.5931C33.6835 31.1487 34.921 30.445 36.0812 29.4079C37.0479 28.5561 37.8214 27.6301 38.4014 26.6301C38.9815 25.6301 39.4069 24.519 39.6389 23.2968C40.2576 20.3338 39.7936 18.0375 38.2854 16.3709C36.7772 14.7042 34.3796 13.8894 31.0926 13.8894H20.1487L15.0828 38.8894ZM43.8154 7.25977H49.4613L48.1079 13.8894H53.1351C56.3061 13.8894 58.4717 14.4079 59.6705 15.482C60.8693 16.5561 61.2173 18.2598 60.7533 20.6301L58.3944 32.2598H52.671L54.914 21.1857C55.1847 19.9264 55.0686 19.0746 54.6433 18.6301C54.2179 18.1857 53.2511 17.9264 51.8203 17.9264H47.2958L44.3954 32.2598H38.7495L43.8154 7.25977ZM73.2827 17.8524C75.4483 17.8524 76.8791 18.2227 77.6139 19.0005C78.3486 19.7783 78.5033 21.0746 78.1166 22.9264C77.7299 24.8524 76.9565 26.2598 75.835 27.0746C74.7135 27.8894 73.012 28.2968 70.7304 28.2968H67.2887L69.4156 17.8524H73.2827ZM59.4385 38.8894H65.1231L66.4766 32.2598H71.3492C73.5147 32.2598 75.2549 32.0375 76.6471 31.5931C78.0393 31.1487 79.2767 30.445 80.4369 29.4079C81.4036 28.5561 82.1771 27.6301 82.7571 26.6301C83.3372 25.6301 83.7626 24.519 83.9946 23.2968C84.6133 20.3338 84.1493 18.0375 82.6411 16.3709C81.1329 14.7042 78.7353 13.8894 75.4483 13.8894H64.5044L59.4385 38.8894Z" fill="#000004"/>
</g>
<defs>
<radialGradient id="paint0_radial_57_389" cx="0" cy="0" r="1" gradientUnits="userSpaceOnUse" gradientTransform="translate(29.7199 8.76574) scale(65.0044 62.2575)">
<stop stop-color="white"/>
<stop offset="0.5" stop-color="#4C6B97"/>
<stop offset="1" stop-color="#231F20"/>
</radialGradient>
<clipPath id="clip0_57_389">
<rect width="99" height="50" fill="white"/>
</clipPath>
</defs>
</svg>
