<svg width="82" height="70" viewBox="0 0 82 70" fill="none" xmlns="http://www.w3.org/2000/svg">
<g clip-path="url(#clip0_57_398)">
<path d="M24.3938 46.1908L26.8858 56.3171C27.4457 58.6163 27.6792 60.2213 27.5856 61.1361C28.9485 56.5646 29.9008 51.5828 30.4426 46.1908H33.439C32.1506 54.9691 30.4512 61.3481 28.3419 65.3275C26.6984 68.394 24.898 69.9272 22.9374 69.9272C22.4146 69.9272 21.7702 69.7294 21.0054 69.3367V67.2207C21.3791 67.2893 21.8174 67.326 22.3216 67.326C23.2362 67.326 23.9734 67.0085 24.5342 66.3749C25.2058 65.6028 25.5419 64.7352 25.5419 63.7734C25.5419 63.1168 25.2798 61.7691 24.7578 59.7305L21.2857 46.1908H24.3936H24.3938ZM5.32172 39.9668L9.88607 57.4078H9.91425L14.5066 39.9668H18.2587C19.0803 48.6163 19.5655 56.5303 19.7145 63.7038H16.5511C16.4398 56.9981 16.1315 50.6924 15.6274 44.7858H15.5998L10.7828 63.7038H8.37375L3.58583 44.7858H3.55764C3.20242 50.4584 2.97885 56.764 2.88564 63.7038H0.000976562C0.187394 55.2637 0.653918 47.3521 1.40055 39.9668H5.32188H5.32172Z" fill="#00758F"/>
<path d="M56.4545 39.6154C61.3643 39.6154 63.8193 43.5439 63.8193 51.3969C63.8193 55.6643 63.081 58.8877 61.6058 61.0653C61.3399 61.4633 61.0461 61.807 60.7366 62.1256L64.2112 64.2771L64.2078 64.2769L62.9741 66.9449L58.4494 63.6385C57.6994 63.9167 56.8741 64.0557 55.9748 64.0557C53.5641 64.0557 51.7633 63.1758 50.5727 61.4181C49.2659 59.4738 48.6128 56.4128 48.6128 52.2405C48.6128 47.9972 49.3498 44.786 50.8254 42.6056C52.1694 40.6111 54.0461 39.6152 56.4545 39.6152V39.6154ZM41.4194 39.6499C43.1742 39.6499 44.7698 40.238 46.207 41.41L45.477 43.4472C44.2472 42.7925 43.0347 42.4638 41.839 42.4638C40.8688 42.4638 40.1212 42.7562 39.6 43.3447C39.076 43.928 38.7519 44.6785 38.7519 45.5935C38.7519 46.9995 39.5517 48.2188 41.0284 49.249C41.5122 49.5802 41.9944 49.9152 42.4748 50.254L42.585 50.3317L42.6402 50.3706L42.7506 50.4482L42.8056 50.4871L42.9158 50.5649C44.0337 51.3542 45.0856 52.1075 45.0856 52.1075C46.5622 53.4203 47.2982 54.8199 47.2982 57.1251C47.2982 59.1382 46.7092 60.7907 45.535 62.0838C44.3599 63.3711 42.7813 64.0166 40.8044 64.0166C38.9554 64.0166 37.1635 63.2736 35.4277 61.8002L36.2397 59.7612C37.7335 60.6989 39.0851 61.1672 40.2989 61.1672C41.4373 61.1672 42.3284 60.8489 42.973 60.2203C43.6163 59.5871 44.0018 58.704 44.0018 57.5842C44.0018 56.1747 43.219 54.9699 41.7829 53.9592C41.3334 53.6482 40.8852 53.3342 40.4384 53.0171L40.3284 52.9391C40.1263 52.7961 39.9227 52.6513 39.7233 52.5095L39.6152 52.4325C38.6455 51.7417 37.8071 51.1382 37.8071 51.1382C36.3715 49.823 35.6516 48.412 35.6516 46.0869C35.6516 44.164 36.1885 42.6098 37.2605 41.4274C38.3351 40.2424 39.7216 39.6499 41.4194 39.6499ZM69.5894 39.9676V60.7847H75.5532V63.7047H66.5648V39.9676H69.5894ZM78.867 60.7937V61.2872H78.2114V63.7021H77.7101V61.2872H77.029V60.7937H78.8672H78.867ZM80.0778 60.7937L80.7074 62.7762L81.2857 60.7937H81.9963V63.7021H81.5238V61.4887L80.8656 63.7021H80.5249L79.8656 61.4887H79.8403V63.7021H79.3933V60.7937H80.078H80.0778ZM56.1457 42.5346C53.2524 42.5346 51.8049 45.5251 51.8049 51.5022C51.8049 54.926 52.1885 57.4087 52.9542 58.9561C53.6633 60.3882 54.774 61.1028 56.2863 61.1028C59.1796 61.1028 60.6269 58.089 60.6269 52.0642C60.6269 48.6884 60.2434 46.2269 59.4787 44.6787C58.7687 43.2498 57.6585 42.5346 56.1459 42.5346H56.1457Z" fill="#F29111"/>
<path d="M48.5621 1.47082C49.5219 -1.48282 52.8779 0.753968 54.1803 1.78572C54.4995 2.04385 54.8656 2.58921 55.2315 2.79079C55.8025 2.81887 56.3729 2.87483 56.9448 2.90471C58.0175 3.22041 59.0223 3.47835 59.8676 4.08127C63.7958 6.97855 66.353 9.93099 68.7064 14.8077C69.2093 15.8407 69.4606 16.9585 69.8714 18.0763C70.4415 19.7424 71.0821 21.4914 71.7439 23.0669C72.0402 23.8138 72.2693 24.6444 72.6808 25.2752C72.8414 25.5636 73.2977 25.6487 73.5704 25.821C74.3244 26.3098 75.2379 26.6808 75.9471 27.2545C77.2714 28.2886 78.5518 29.521 79.7158 30.7826C80.1497 31.2696 80.4453 31.9589 80.8586 32.474V32.7339C80.4917 32.8749 80.1261 33.0193 79.7602 33.1351C78.9608 33.3922 78.2528 33.334 77.4773 33.5914C76.9982 33.7655 76.4032 33.9951 75.9006 34.0535L75.9471 34.1121C76.2427 35.1701 77.8423 36.0305 78.5739 36.6634C79.4624 37.4665 80.2858 38.4404 80.9485 39.559C81.1773 39.8444 81.4062 40.1042 81.6339 40.3888C81.7931 40.6772 81.838 41.0503 81.9991 41.3074V41.3945C81.8207 41.3156 81.6924 41.1652 81.5708 41.008L81.4983 40.9131C81.4257 40.8188 81.3526 40.7262 81.2691 40.6497C80.765 40.2185 80.2643 39.7026 79.7602 39.3017C78.8934 38.6129 77.8881 38.2132 76.9982 37.5218C76.495 37.1205 76.0153 36.6634 75.5357 36.204C75.1008 35.8015 74.622 35.0285 74.3488 34.4548C74.1878 34.1379 74.1657 33.7655 73.9819 33.5362C74.0147 33.1533 74.2948 33.0396 74.5775 32.9461L74.6425 32.9247C74.74 32.893 74.8355 32.8613 74.9187 32.8194C76.1061 32.188 77.5217 31.9589 79.3497 32.0163C79.2808 31.4414 78.1386 30.7252 77.7739 30.381C77.0421 29.7203 76.2671 29.031 75.4907 28.4296C75.0792 28.1147 74.3702 27.8849 73.9144 27.6275C73.2977 27.3118 71.9269 26.9963 71.5852 26.395C71.0046 25.4471 70.5876 24.3165 70.1827 23.1744L70.0725 22.8627C70.0358 22.7589 69.999 22.655 69.962 22.5512C69.4835 21.1759 68.889 19.742 68.4093 18.3338C68.1586 17.6468 68.0434 17.0439 67.7687 16.385C66.102 12.3419 63.6352 8.9568 60.6444 6.5762C59.6615 5.80159 58.5656 5.08474 57.3558 4.59755C56.6702 4.33821 55.8473 4.48162 55.1169 4.28265H54.6361C54.2258 4.13784 53.8832 3.59308 53.5631 3.30586C52.856 2.70454 52.1478 2.30079 51.3022 1.87176C51.0059 1.69967 50.1598 1.29892 49.8645 1.61443C49.6816 1.67199 49.5889 1.75844 49.5439 1.98829C49.3619 2.33127 49.5219 2.84795 49.6352 3.16425C49.9782 4.08087 50.4574 4.62563 50.8924 5.40024C51.2793 6.0872 51.7599 6.86182 52.0342 7.60875C52.6262 9.21434 52.9018 10.9932 53.4503 12.5986C53.6537 13.2023 53.9754 13.8893 54.2716 14.4338C54.5225 14.8661 54.9788 15.1786 55.1169 15.7257C55.392 16.2994 54.7049 18.1922 54.5459 18.7933C53.9509 21.1454 54.0663 24.415 54.7514 26.4538L54.7879 26.5613L54.8244 26.6702C55.0746 27.4169 55.3423 28.221 56.0075 28.4298C56.0533 28.3729 56.0075 28.4028 56.0983 28.3729C56.2592 26.7948 56.3045 25.275 56.7389 24.0403C56.9898 23.2683 57.491 22.7225 57.8345 22.0923C58.0635 22.264 58.0635 22.7817 58.2 23.1243C58.4972 24.0128 58.8164 24.987 59.1828 25.8781C59.9349 27.7134 60.7811 29.4927 61.74 31.0981C62.0611 31.6715 62.5167 32.3027 62.9277 32.8192C63.1107 33.0191 63.3157 33.1347 63.4533 33.392H63.4981V33.4787C62.813 33.1624 62.3786 32.2746 61.8322 31.7563C60.8034 30.7822 59.5713 29.3192 58.8622 27.9154C58.5656 27.1095 58.245 26.3371 57.9253 25.5352V25.4772C57.7887 25.7063 57.8345 25.9337 57.7661 26.2803C57.4695 27.7134 57.6979 29.3483 56.6702 29.8637C55.5052 30.4675 54.6362 28.8896 54.2716 28.1725C53.1063 25.7925 52.7871 21.7774 53.6089 18.5364C53.7914 17.8189 53.8163 16.9585 54.135 16.3856C54.0661 15.8677 53.7474 15.7261 53.5631 15.4088C53.2434 14.8665 52.9697 14.2347 52.7194 13.6324C52.2386 12.4558 51.8965 11.05 51.5315 9.78818C51.371 9.27291 51.3251 8.75563 51.1651 8.26783C50.8922 7.52331 50.3892 6.77637 50.0011 6.11769C49.4756 5.17099 47.9452 3.33614 48.5621 1.47082ZM56.0528 7.08987C56.1138 7.16649 56.1875 7.23348 56.2637 7.29947L56.3556 7.37849C56.4782 7.4848 56.5968 7.59672 56.6695 7.74915C56.7848 7.95093 56.8063 8.1501 56.9444 8.35227C56.9444 9.04164 56.7848 9.49995 56.4628 9.78557C56.4628 9.78557 56.4408 9.81566 56.4183 9.84374C56.2357 9.38422 56.0757 8.92712 55.8918 8.46801C55.6654 8.06726 55.3452 7.74935 55.1607 7.29144H55.1164V7.23388C55.392 7.14864 55.6654 7.08987 56.0528 7.08987Z" fill="#00758F"/>
</g>
<defs>
<clipPath id="clip0_57_398">
<rect width="82" height="70" fill="white"/>
</clipPath>
</defs>
</svg>
