<?xml version="1.0" encoding="UTF-8"?>
<svg xmlns="http://www.w3.org/2000/svg" xmlns:xlink="http://www.w3.org/1999/xlink" width="60px" height="60px" viewBox="0 0 60 60" version="1.1">
<g id="surface1">
<path style="fill-rule:nonzero;fill:rgb(5.882353%,5.882353%,5.882353%);fill-opacity:1;stroke-width:15;stroke-linecap:butt;stroke-linejoin:miter;stroke:rgb(0%,0%,0%);stroke-opacity:1;stroke-miterlimit:4;" d="M 492.513021 250 C 492.513021 383.919271 383.919271 492.513021 250 492.513021 C 116.080729 492.513021 7.486979 383.919271 7.486979 250 C 7.486979 116.080729 116.080729 7.486979 250 7.486979 C 383.919271 7.486979 492.513021 116.080729 492.513021 250 Z M 492.513021 250 " transform="matrix(0.12,0,0,0.12,0,0)"/>
<path style="fill-rule:nonzero;fill:rgb(0%,0%,0%);fill-opacity:1;stroke-width:1;stroke-linecap:butt;stroke-linejoin:miter;stroke:rgb(96.078431%,96.078431%,96.078431%);stroke-opacity:1;stroke-miterlimit:4;" d="M 482.845052 250 C 482.845052 378.580729 378.580729 482.845052 250 482.845052 C 121.419271 482.845052 17.154948 378.580729 17.154948 250 C 17.154948 121.419271 121.419271 17.154948 250 17.154948 C 378.580729 17.154948 482.845052 121.419271 482.845052 250 Z M 482.845052 250 " transform="matrix(0.12,0,0,0.12,0,0)"/>
<path style=" stroke:none;fill-rule:nonzero;fill:rgb(0.392157%,92.54902%,66.27451%);fill-opacity:1;" d="M 16.261719 41.445312 L 17.433594 40.082031 L 31.074219 51.824219 L 29.898438 53.191406 Z M 16.261719 41.445312 "/>
<path style=" stroke:none;fill-rule:nonzero;fill:rgb(0.392157%,92.54902%,66.27451%);fill-opacity:1;" d="M 21.421875 17.640625 L 22.980469 17.640625 L 22.980469 37.921875 L 21.421875 37.921875 Z M 21.421875 17.640625 "/>
<path style=" stroke:none;fill-rule:nonzero;fill:rgb(0.392157%,92.54902%,66.27451%);fill-opacity:1;" d="M 31.078125 36.359375 L 31.078125 37.917969 L 21.421875 37.917969 L 21.421875 36.359375 Z M 31.078125 36.359375 "/>
<path style=" stroke:none;fill-rule:nonzero;fill:rgb(0.392157%,92.54902%,66.27451%);fill-opacity:1;" d="M 42.320312 40.082031 L 43.496094 41.445312 L 29.855469 53.1875 L 28.679688 51.824219 Z M 42.320312 40.082031 "/>
<path style=" stroke:none;fill-rule:nonzero;fill:rgb(0.392157%,92.54902%,66.27451%);fill-opacity:1;" d="M 18.140625 40.703125 L 16.253906 41.457031 L 16.632812 39.339844 Z M 18.140625 40.703125 "/>
<path style=" stroke:none;fill-rule:nonzero;fill:rgb(0.392157%,92.54902%,66.27451%);fill-opacity:1;" d="M 41.617188 40.683594 L 43.128906 39.324219 L 43.503906 41.441406 Z M 41.617188 40.683594 "/>
<path style=" stroke:none;fill-rule:nonzero;fill:rgb(0.392157%,92.54902%,66.27451%);fill-opacity:1;" d="M 38.457031 18.070312 L 39.738281 18.960938 L 27.921875 28.339844 L 26.640625 27.449219 Z M 38.457031 18.070312 "/>
<path style=" stroke:none;fill-rule:nonzero;fill:rgb(0.392157%,92.54902%,66.27451%);fill-opacity:1;" d="M 38.722656 36.695312 L 37.378906 37.484375 L 26.652344 27.410156 L 28 26.617188 Z M 38.722656 36.695312 "/>
<path style=" stroke:none;fill-rule:nonzero;fill:rgb(0.392157%,92.54902%,66.27451%);fill-opacity:1;" d="M 39.09375 19.433594 L 38.445312 18.066406 L 40.460938 18.398438 Z M 39.09375 19.433594 "/>
<path style=" stroke:none;fill-rule:nonzero;fill:rgb(0.392157%,92.54902%,66.27451%);fill-opacity:1;" d="M 38.171875 36.175781 L 39.417969 37.292969 L 37.371094 37.496094 Z M 38.171875 36.175781 "/>
</g>
</svg>
