<svg width="500" height="500" viewBox="0 0 500 500" fill="none" xmlns="http://www.w3.org/2000/svg">
<circle cx="250" cy="250" r="242.5" fill="#0F0F0F" stroke="black" stroke-width="15"/>
<path d="M482.832 249.995C482.832 378.586 378.589 482.829 249.999 482.829C121.409 482.829 17.1655 378.586 17.1655 249.995C17.1655 121.405 121.409 17.1621 249.999 17.1621C378.589 17.1621 482.832 121.405 482.832 249.995Z" fill="black" stroke="#F5F5F5"/>
<rect x="135.501" y="345.373" width="15" height="150" transform="rotate(-49.2689 135.501 345.373)" fill="#01ECA9"/>
<rect x="178.5" y="147.004" width="13" height="169" fill="#01ECA9"/>
<rect x="259" y="302.996" width="13" height="80.5" transform="rotate(90 259 302.996)" fill="#01ECA9"/>
<rect x="352.669" y="334.002" width="15" height="150" transform="rotate(49.27 352.669 334.002)" fill="#01ECA9"/>
<path d="M151.187 339.184L135.462 345.48L138.601 327.847L151.187 339.184Z" fill="#01ECA9"/>
<path d="M346.816 339.039L359.401 327.701L362.542 345.333L346.816 339.039Z" fill="#01ECA9"/>
<rect width="13" height="125.715" transform="matrix(0.820869 0.571116 -0.783355 0.621575 320.479 150.586)" fill="#01ECA9"/>
<rect width="13" height="122.632" transform="matrix(-0.862141 0.506669 -0.728855 -0.684668 322.701 305.779)" fill="#01ECA9"/>
<path d="M325.791 161.961L320.378 150.561L337.174 153.324L325.791 161.961Z" fill="#01ECA9"/>
<path d="M318.094 301.451L328.472 310.762L311.424 312.478L318.094 301.451Z" fill="#01ECA9"/>
</svg>
